<svg xmlns="http://www.w3.org/2000/svg" width="24" height="24" viewBox="0 0 24 24" fill="none">
  <!-- Bottom Shadows (fill only, no stroke) -->
  <rect x="3.5" y="3.5" width="7" height="7" rx="2" fill="#46A302" />
  <rect x="15.5" y="3.5" width="7" height="7" rx="2" fill="#46A302" />
  <rect x="3.5" y="14.5" width="7" height="7" rx="2" fill="#46A302" />
  <rect x="15.5" y="14.5" width="7" height="7" rx="2" fill="#46A302" />
  <!-- Connector outlines -->
  <path d="M9.5 9.5 L12 12 L14.5 9.5 M9.5 13.5 L12 12 L14.5 13.5" stroke="#FFFFFF" stroke-width="3.5" stroke-linecap="round" stroke-linejoin="round" />
  <!-- Connector inner lines -->
  <path d="M9.5 9.5 L12 12 L14.5 9.5 M9.5 13.5 L12 12 L14.5 13.5" stroke="#F8FAFC" stroke-width="1.5" stroke-linecap="round" stroke-linejoin="round" />
  <!-- Top-Left: Vibrant Blue -->
  <rect x="2.5" y="2.5" width="7" height="7" rx="2" fill="#3B82F6" stroke="#FFFFFF" stroke-width="2" stroke-linejoin="round" />
  <!-- Top-Right: Golden Orange -->
  <rect x="14.5" y="2.5" width="7" height="7" rx="2" fill="#F59E0B" stroke="#FFFFFF" stroke-width="2" stroke-linejoin="round" />
  <!-- Bottom-Left: Deep Orange -->
  <rect x="2.5" y="13.5" width="7" height="7" rx="2" fill="#FF4D00" stroke="#FFFFFF" stroke-width="2" stroke-linejoin="round" />
  <!-- Bottom-Right: Teal -->
  <rect x="14.5" y="13.5" width="7" height="7" rx="2" fill="#14B8A6" stroke="#FFFFFF" stroke-width="2" stroke-linejoin="round" />
</svg>
