<svg xmlns="http://www.w3.org/2000/svg" width="24" height="24" viewBox="0 0 24 24" fill="none">
  <!-- 3D Offset Shadow for Arrows -->
  <path d="M4 7h16M16 3l4 4-4 4M20 17H4M8 13l-4 4 4 4" stroke="#46A302" stroke-width="2.5" stroke-linecap="round" stroke-linejoin="round" transform="translate(1, 1)" />
  <!-- Main Arrows (Top pointing right, Bottom pointing left) -->
  <path d="M4 7h16M16 3l4 4-4 4M20 17H4M8 13l-4 4 4 4" stroke="#58CC02" stroke-width="2.5" stroke-linecap="round" stroke-linejoin="round" />
  <!-- Coin Shadow (Neubrutalist offset) -->
  <circle cx="13" cy="13" r="5" fill="#0F172A" />
  <!-- Center Transfer Fee Coin -->
  <circle cx="12" cy="12" r="5" fill="#FACC15" stroke="#0F172A" stroke-width="2" />
  <!-- Stylized Pound Sign inside Coin -->
  <path d="M13.5 10.5 C13.5 8.5 11 8.5 11 10.5 V12.5 C11 14 10.5 14.5 10 15 H14.5 M9.5 12.5 H13" stroke="#0F172A" stroke-width="1.5" stroke-linecap="round" stroke-linejoin="round" />
</svg>
